<svg xmlns="http://www.w3.org/2000/svg" xmlns:xlink="http://www.w3.org/1999/xlink" width="335.7" height="362.05" viewBox="0 0 335.7 362.05">
  <defs>
    <clipPath id="clip-path">
      <circle id="Ellipse_20" data-name="Ellipse 20" cx="54.5" cy="54.5" r="54.5" transform="translate(-0.47 0.11)" fill="rgba(0,0,0,0)"/>
    </clipPath>
  </defs>
  <g id="Group_622" data-name="Group 622" transform="translate(-144.987 -342.325)">
    <g id="Group_167" data-name="Group 167" transform="translate(179.233 341.868)">
      <path id="Path_209" data-name="Path 209" d="M45.85,66.385C56.825,55.411,132.727-25.064,197.658,7.858S293.679,80.1,329.345,154.176c11.48,29.414,19.2,116.14-86.877,184.726S57.74,303.237,45.85,288.6-51.09,187.093,45.85,66.385Z" transform="translate(301.454 362.508) rotate(180)" fill="#034c3e" opacity="0.1"/>
    </g>
    <g id="Group_621" data-name="Group 621" transform="translate(6.693 14.887)">
      <circle id="Ellipse_19" data-name="Ellipse 19" cx="138.415" cy="138.415" r="138.415" transform="translate(167.729 370.049)" fill="#185d4e"/>
      <g id="Group_620" data-name="Group 620" transform="translate(23.415 18.852)">
        <g id="_1165858" data-name="1165858" transform="translate(170.729 405.144)">
          <path id="Path_502" data-name="Path 502" d="M53.34-1176.357a36.977,36.977,0,0,0-28.4,15.17c-9.64,13.07-10.944,31.541-3.613,51.225,9.679,25.984,33.432,53.116,69.447,79.361,3.052,2.23,6.9,4.944,7.109,5.022.235.091,5.752-3.822,11.609-8.218,25.775-19.344,44.9-39.185,56.6-58.686,7.435-12.392,11.635-23.962,12.953-35.767a79.756,79.756,0,0,0,.065-11.153,46.075,46.075,0,0,0-4.474-15.836,37.236,37.236,0,0,0-7.853-10.735,34.819,34.819,0,0,0-8.961-6.418,35.4,35.4,0,0,0-18.392-3.9c-12.927.561-25.267,8.244-33.876,21.105a81.779,81.779,0,0,0-6.692,12.679,8.6,8.6,0,0,1-.926,1.957c-.052-.052-.457-1-.913-2.113a90.429,90.429,0,0,0-4.722-9.483c-8.166-13.644-19.358-21.875-32.389-23.845A50.853,50.853,0,0,0,53.34-1176.357Z" transform="translate(-16.639 1176.365)" fill="#42a57d"/>
        </g>
        <g id="_29243" data-name="29243" transform="translate(247.696 386.205)">
          <path id="Path_501" data-name="Path 501" d="M76.273-1279.572c-.918.09-6.67,1.054-8.356,1.385-1.325.271-1.37.271-1.972-.015l-.617-.286-1.566.391a33.48,33.48,0,0,0-6.82,2.62c-2.469,1.295-3.011,2.138-3,4.7a9.71,9.71,0,0,0,.753,3.689,5.32,5.32,0,0,0,1.882,2.048,2.941,2.941,0,0,0,1.762.256,5.207,5.207,0,0,0,2.635-.768,41.574,41.574,0,0,0,5.917-3.553c1.22-.9,2.319-1.972,2.063-1.972a4.536,4.536,0,0,1,.075-2.138c.12-.135,5.179-1.083,7.934-1.49a37.51,37.51,0,0,1,3.914-.346l1.671-.015,1.039.692c4.5,3.011,10.178,10.343,15.221,19.632a169.522,169.522,0,0,1,8.461,18.4l.783,1.972-.136,1.159c-.12,1.144-.12,1.175.527,2.921a33.372,33.372,0,0,1,1.716,6.715,25.755,25.755,0,0,1,.346,5.345,21.773,21.773,0,0,1-.888,7.438c-1.837,6.368-6.5,11.006-13.415,13.384-9.861,3.4-22.087.632-35.291-7.994a59.886,59.886,0,0,1-7.242-5.42,4.87,4.87,0,0,0-1.265-.964c-.572-.286-1.114-.858-2.921-3.056-13.339-16.275-20.867-29.569-20.446-36.133a6.318,6.318,0,0,1,1.024-3.327,15.914,15.914,0,0,1,7.5-6.248c1.551-.647,1.686-.632,2.288.166A3.89,3.89,0,0,0,41-1259.4c.6.3.693.316,1.9.12a37.848,37.848,0,0,0,8.386-2.484c1.536-.677,1.641-.873,1.641-2.695.015-4.276-1.265-6.805-3.9-7.679-.617-.2-.708-.181-2.319.361-3.493,1.175-8.115,3.583-8.687,4.5a2.557,2.557,0,0,0-.286,1.039v.557l-1.912.994a24.2,24.2,0,0,0-6.384,4.592,17.167,17.167,0,0,0-3.749,5.179,7.727,7.727,0,0,0-.9,3.885c0,3.583,1.581,8.431,4.893,14.95,6.188,12.241,17.269,27.221,31.587,42.743,2.048,2.213,2.017,2.153,1.6,3.207-.2.467-.181.482.858,1.656,5.947,6.7,14.393,13.625,21.093,17.284a38.553,38.553,0,0,0,12.5,4.426,27.146,27.146,0,0,0,8.476-.361c.211-.074.888,1.069,3.659,6.278,7.422,13.957,12.09,22.99,13.415,25.971a33.921,33.921,0,0,1,1.129,24.661,33.128,33.128,0,0,1-4.08,8.3c-2.59,3.011-6.459,5.089-11.382,6.113a27.658,27.658,0,0,1-9.048-.015c-5.119-1.1-8.672-3.388-18.308-11.759-1.566-1.37-3.7-3.162-4.743-3.989-7.182-5.751-13.656-9.079-19.949-10.269a30.273,30.273,0,0,0-8.808.091c-3.3.693-5.315,1.445-10.509,3.914-5.315,2.515-7.136,3.087-9.816,3.087-3.3,0-6.022-1.385-9.35-4.712-4.14-4.156-6.926-10.223-8.055-17.51a30.443,30.443,0,0,1-.075-7.2,146.625,146.625,0,0,1,4.1-16.064c1.159-3.764,1.174-3.824.5-4.336-.316-.241-.512-.512-.482-.647.045-.226.241-.256,1.4-.211a15.987,15.987,0,0,0,11.8-4.863,17.072,17.072,0,0,0,3.794-6.775,21.213,21.213,0,0,0,.286-6.625,15.986,15.986,0,0,0-4.351-8.371A15.653,15.653,0,0,0,8.9-1195.02a17.22,17.22,0,0,0-5.992,5.285A15.672,15.672,0,0,0,4.849-1170a14.865,14.865,0,0,0,3.719,2.74c.3.151.557.317.557.377a2.685,2.685,0,0,1-1.054.226c-.572.045-1.054.166-1.054.256,0,.075-.407,1.4-.888,2.951a135.311,135.311,0,0,0-4.547,17.72c-1.159,6.971.632,16.561,4.487,24C10.374-1113.4,17.3-1107.652,24.3-1106.6a15.279,15.279,0,0,0,5.1,0c3.071-.437,5.556-1.235,11.412-3.689,7.106-2.966,8.567-3.387,11.894-3.372a18.653,18.653,0,0,1,8.582,2c4.125,1.957,7.558,4.441,15.266,11.081,8.552,7.347,12.165,9.891,16.576,11.638a31.866,31.866,0,0,0,25.294-1.43,24.016,24.016,0,0,0,6.4-4.487c2.258-2.228,3.674-4.381,5.556-8.476,5.239-11.473,5.3-21.906.2-34.508-1.852-4.607-3.267-7.378-11.954-23.683-2.68-5.043-4.908-9.244-4.953-9.35a4.928,4.928,0,0,1,1.114-1.43c3.568-3.674,6.143-9.063,7.392-15.522a53.277,53.277,0,0,0,.964-11.367,80.34,80.34,0,0,0-1.265-14.378c-.617-3.749-.512-3.508-1.536-3.674-.783-.12-.858-.165-.948-.6-.06-.256-.738-2.348-1.506-4.682-.783-2.319-1.415-4.231-1.415-4.261a.523.523,0,0,1,.241-.03c.166,0,.211-.09.135-.346-.105-.316-3.117-8.656-3.312-9.168a.97.97,0,0,0-.5-.392c-.316-.1-.482-.361-.768-1.1-.813-2.168-3.011-7.076-4.833-10.749a102.453,102.453,0,0,0-13.686-21.379,90.529,90.529,0,0,0-7.814-8.01,10.011,10.011,0,0,0-3.99-1.385A39.635,39.635,0,0,0,76.273-1279.572Zm37.489,61.849.5,1.64-.361.271a1.87,1.87,0,0,1-.452.286,10.749,10.749,0,0,1-.2-1.882,18.947,18.947,0,0,0-.181-2.138c-.06-.211-.06-.226.06-.045A17.82,17.82,0,0,1,113.762-1217.723Zm.3,8.747c1.174,9.35.8,17.6-1.069,23.307-1.626,4.968-4.637,8.657-8.251,10.117-6.534,2.665-16.4-1.536-28.019-11.954-1.837-1.641-5.917-5.646-6.489-6.368l-.452-.557,1.114.5c9.575,4.366,18.1,5.4,25.294,3.086a29.964,29.964,0,0,0,6.956-3.553,25.144,25.144,0,0,0,7.061-8.325,28.052,28.052,0,0,0,3.041-10.163c.105-.738.12-.708.376.979C113.777-1210.963,113.973-1209.639,114.063-1208.977Zm-46.9,13.249c1.189.617,1.25.677.873.768-.226.045-.5.106-.587.136s-.527-.317-.979-.768c-.437-.452-.753-.813-.693-.813A14.532,14.532,0,0,1,67.164-1195.727Z" transform="translate(-0.285 1279.603)" fill="#e5fdec"/>
        </g>
      </g>
    </g>
  </g>
</svg>
