<svg xmlns="http://www.w3.org/2000/svg" xmlns:xlink="http://www.w3.org/1999/xlink" width="335.7" height="362.05" viewBox="0 0 335.7 362.05">
  <defs>
    <clipPath id="clip-path">
      <path id="Path_366" data-name="Path 366" d="M585.167,266.523c0,76.458-54.988,138.43-122.817,138.425s-122.806-61.975-122.8-138.422S394.536,128.116,462.364,128.12c32.615-.171,63.939,14.355,87,40.348S585.318,229.764,585.167,266.523Z" transform="translate(-339.548 -128.118)" fill="none"/>
    </clipPath>
  </defs>
  <g id="Group_618" data-name="Group 618" transform="translate(0 0)">
    <path id="Path_209" data-name="Path 209" d="M-2242.86-131.008c10.974-10.974,86.877-91.449,151.807-58.527s96.022,72.245,131.687,146.317c11.48,29.414,19.2,116.14-86.876,184.726s-184.728-35.665-196.618-50.3S-2339.8-10.3-2242.86-131.008Z" transform="translate(2288.711 197.393)" fill="#034c3e" opacity="0.1"/>
    <g id="Group_167" data-name="Group 167" transform="translate(29.435 42.61)">
      <path id="Path_310" data-name="Path 310" d="M616.377,266.523a137.765,137.765,0,1,1-40.35-98.055A138.417,138.417,0,0,1,616.377,266.523Z" transform="translate(-339.548 -128.118)" fill="#185d4e"/>
      <g id="Group_185" data-name="Group 185" transform="translate(0 0)">
        <g id="Group_184" data-name="Group 184" clip-path="url(#clip-path)">
          <g id="Group_183" data-name="Group 183" transform="translate(-24.874 45.879)">
            <path id="Path_311" data-name="Path 311" d="M779.269,229.075c-17.258,26.538-40.979,46.86-68.284,58.5H604.8c-27.312-11.639-51.04-31.961-68.305-58.5Z" transform="translate(-136.667 -58.324)" fill="#b7b7ff"/>
            <g id="Group_182" data-name="Group 182" transform="translate(0 0)">
              <path id="Path_312" data-name="Path 312" d="M335.456,229.613c-.932,1.221.429,107.824.429,107.824l211.168-.822-2.223-112.589L504,157.635Z" transform="translate(-318.669 -140.176)" fill="#fff"/>
              <path id="Path_313" data-name="Path 313" d="M419.428,180.358s-2.562,12.04-.9,11.55,16.186,2.553,15.849.97-.419-13.647-.419-13.647Z" transform="translate(-243.796 -115.434)" fill="#185d4e"/>
              <path id="Path_314" data-name="Path 314" d="M426.729,179.232s-1.194,13.755.32,13.647a14.788,14.788,0,0,0,3.53-.91l.176-11.886Z" transform="translate(-236.279 -115.434)" fill="#42a57d"/>
              <path id="Path_315" data-name="Path 315" d="M402.07,292.1l.611-95.755,28.586,1.058-.012,96.637Z" transform="translate(-258.165 -95.821)" fill="#42a57d"/>
              <path id="Path_316" data-name="Path 316" d="M408.595,224.547l7.554-.8-.359-20.328-7.969.458Z" transform="translate(-252.97 -87.722)" fill="#185d4e"/>
              <path id="Path_317" data-name="Path 317" d="M408.655,218.16l6.4.963.224,16.077-7.464,1.219Z" transform="translate(-252.975 -70.831)" fill="#185d4e"/>
              <path id="Path_318" data-name="Path 318" d="M470.129,248.15c-.874-.33-51.031-71.32-50.738-72.306s9.622-17.744,9.622-17.744l39.657,65.4Z" transform="translate(-242.51 -139.651)" fill="#e1e1ff"/>
              <path id="Path_319" data-name="Path 319" d="M335.748,191.18,334.809,299l114.788-.976L448.961,192.3Z" transform="translate(-318.959 -101.744)" fill="#e1e1ff"/>
              <path id="Path_320" data-name="Path 320" d="M378.18,200.774l-.629,39.676-27.178.764c.373-1.211.352-28.423.3-39.94C359.308,201.143,368.942,200.959,378.18,200.774Z" transform="translate(-304.891 -90.75)" fill="#42a57d"/>
              <g id="Group_180" data-name="Group 180" transform="translate(49.163 110.839)">
                <path id="Path_321" data-name="Path 321" d="M352.749,201.67l-.321,20.209q9.2-10.361,18.389-20.724C368.978,201.138,352.749,201.67,352.749,201.67Z" transform="translate(-352.196 -201.154)" fill="#185d4e"/>
                <path id="Path_322" data-name="Path 322" d="M371.827,205.795c-6.692,7.978-13.12,16.374-19.5,23.986l-.021,1.331,1.422-.116L371.88,210.54C371.869,208.911,371.854,207.305,371.827,205.795Z" transform="translate(-352.306 -195.837)" fill="#185d4e"/>
                <path id="Path_323" data-name="Path 323" d="M371.217,212.444c0-1.472,0-2.963-.011-4.438l-18.152,20.456,3.969-.318a105.476,105.476,0,0,1,14.194-15.7Z" transform="translate(-351.631 -193.304)" fill="#b7b7ff"/>
                <path id="Path_324" data-name="Path 324" d="M369.333,210.074a105.47,105.47,0,0,0-14.194,15.7l14.078-1.13S369.328,217.675,369.333,210.074Z" transform="translate(-349.747 -190.935)" fill="#185d4e"/>
                <path id="Path_325" data-name="Path 325" d="M371.048,201.155h-.131q-9.193,10.366-18.389,20.725l-.21,13.218c6.376-7.607,12.8-16.007,19.5-23.986C371.723,205.535,371.5,201.171,371.048,201.155Z" transform="translate(-352.296 -201.155)" fill="#b7b7ff"/>
              </g>
              <path id="Path_326" data-name="Path 326" d="M447.862,191.18c-.91.794-8.935,12.619-13.134,17.565-1.119,1.341-1.959,2.157-2.332,2.157-.56,0-10.987.236-24.775.552-4.946.105-10.312.21-15.817.316-9.237.185-18.871.369-27.5.5-16.1.236-28.718.316-28.718-.052,0-1-.28-21.039-.28-21.039Z" transform="translate(-318.513 -101.744)" fill="#b7b7ff"/>
              <path id="Path_327" data-name="Path 327" d="M378.107,198.747l-.07,4.466c-9.237.185-18.871.369-27.5.5v-5.075Z" transform="translate(-304.747 -93.193)" fill="#42a57d"/>
              <path id="Path_328" data-name="Path 328" d="M401.072,242.223l-27.692.236-.093-40.39c13.788-.315,24.214-.552,24.775-.552.373,0,1.212-.816,2.332-2.156Z" transform="translate(-284.18 -92.365)" fill="#42a57d"/>
              <path id="Path_329" data-name="Path 329" d="M400.394,200.137c-1.119,1.341-1.959,2.156-2.333,2.156-.56,0-10.987.236-24.775.552V199.67l27.084-.975Z" transform="translate(-284.18 -93.137)" fill="#42a57d"/>
              <path id="Path_330" data-name="Path 330" d="M421.883,197.564l1,48.274,35.063.131.232-48.115Zm4.152,44.12-.7-39.86,26.57,1.341,1.82,38.545Z" transform="translate(-240.255 -94.429)" fill="#42a57d"/>
              <path id="Path_331" data-name="Path 331" d="M447.317,200.74l-23.62-1.191.47,26.874C432.019,218.013,439.549,209.244,447.317,200.74Z" transform="translate(-238.616 -92.154)" fill="#42a57d"/>
              <path id="Path_332" data-name="Path 332" d="M450.309,205.844l-.264-5.59-2.951-.15c-7.768,8.5-15.3,17.273-23.149,25.683l.151,8.511C433.048,225.547,441.5,215.1,450.309,205.844Z" transform="translate(-238.393 -91.518)" fill="#b7b7ff"/>
              <path id="Path_333" data-name="Path 333" d="M424.909,235.708c7.886-9.538,17.161-18.293,25.584-27.528l-.255-5.4c-8.8,9.253-17.258,19.7-26.214,28.453l.078,4.476Z" transform="translate(-238.321 -88.454)" fill="#42a57d"/>
              <path id="Path_334" data-name="Path 334" d="M450.072,205.3c-8.423,9.235-17.7,17.99-25.584,27.528H428.7c7.671-7.184,14.473-15.346,21.572-23.172Z" transform="translate(-237.901 -85.57)" fill="#b7b7ff"/>
              <path id="Path_335" data-name="Path 335" d="M448.272,207.328c-7.1,7.826-13.9,15.988-21.572,23.172l22.669.022Z" transform="translate(-235.9 -83.241)" fill="#42a57d"/>
              <path id="Path_336" data-name="Path 336" d="M435.578,204.324a2.966,2.966,0,1,1-2.945-3.318,3.15,3.15,0,0,1,2.945,3.318Z" transform="translate(-233.201 -90.485)" fill="#fff"/>
              <path id="Path_337" data-name="Path 337" d="M442.9,204.8c-1.36-2.363-2.365-4.1-2.365-4.1l-6.747-1.023s-4.811,16.267-9.449,21.359l.777,3.6C431.137,218.126,436.977,211.41,442.9,204.8Z" transform="translate(-238.031 -92.004)" fill="#185d4e"/>
              <path id="Path_338" data-name="Path 338" d="M445.765,207.689c-1.1-1.929-2.258-3.933-3.229-5.62-5.928,6.609-11.768,13.321-17.786,19.834l1.553,7.2C432.895,222.326,439.269,214.8,445.765,207.689Z" transform="translate(-237.662 -89.267)" fill="#b7b7ff"/>
              <path id="Path_339" data-name="Path 339" d="M446.621,206.327c-6.831,7.324-14.049,14.43-20.6,21.915l.826,3.826c7.623-7.066,14.38-15.108,21.386-22.87C447.847,208.494,447.289,207.5,446.621,206.327Z" transform="translate(-236.514 -84.388)" fill="#b7b7ff"/>
              <path id="Path_340" data-name="Path 340" d="M426.457,230.535l.031.146,14.8-1.073,5.5-17.911a27.239,27.239,0,0,0,1.62-2.959q-.257-.552-.564-1.073C440.836,215.426,434.08,223.469,426.457,230.535Z" transform="translate(-236.121 -82.855)" fill="#185d4e"/>
              <path id="Path_341" data-name="Path 341" d="M447.032,208.205c-.609-1.073-1.293-2.273-2-3.517-6.5,7.109-12.867,14.637-19.459,21.411l.866,4.021C432.984,222.635,440.2,215.529,447.032,208.205Z" transform="translate(-236.925 -86.266)" fill="#185d4e"/>
              <path id="Path_342" data-name="Path 342" d="M569.033,231.29l-2.5,4.5-12.762-.816L512.53,169.608,468.464,237.6l-135.607,1.236s-3.406-1.341-4.83-3.864a4.492,4.492,0,0,1-.44-3.682c1.47-4.916,38.351-67.7,44.627-75.592s8.469-4.6,8.469-4.6l136.542-1.236a8.843,8.843,0,0,1,1.19.659,32.975,32.975,0,0,1,10.1,10.752C534.039,170.161,569.033,231.29,569.033,231.29Z" transform="translate(-325.678 -149.085)" fill="#185d4e"/>
              <path id="Path_343" data-name="Path 343" d="M517.95,150.521a34.547,34.547,0,0,0-6.812,6.178c-4.082,5.26-45.981,76.7-45.981,76.7s-114.706,1.734-137.591,1.577a4.492,4.492,0,0,1-.44-3.682c1.47-4.916,38.351-67.7,44.627-75.592s8.469-4.6,8.469-4.6l136.542-1.235a8.852,8.852,0,0,1,1.188.659Z" transform="translate(-326.093 -149.085)" fill="#42a57d"/>
              <path id="Path_344" data-name="Path 344" d="M571.181,233.8c-2.289-7.826-6.479-14.508-10.585-21.237l-14.807-24.278q-7.239-11.867-14.479-23.739c-3.069-5.031-6.774-11.214-11.844-13.958l.069-.073c.188-.2-.005-.622-.264-.515-.158.066-.3.168-.457.24-.154-.072-.3-.174-.455-.24a.231.231,0,0,0-.223.043.3.3,0,0,0-.1.227c-11.46-1.228-23.1-.618-34.6-.6q-17.72.036-35.438.068l-34.858.07c-11.094.022-22.46-.408-33.535.744l.044-.045c.19-.2-.005-.622-.264-.515a12.576,12.576,0,0,0-1.373.723c-.1.013-.206.019-.307.032a.455.455,0,0,0-.387.349c-4.428,2.865-7.776,8.349-10.559,12.9q-7.416,12.135-14.808,24.28-7.24,11.867-14.479,23.739c-4.211,6.905-8.562,13.743-10.918,21.778a1.385,1.385,0,0,0,.21,1.2,1.054,1.054,0,0,0,1.014.434c3.137,3.059,8.528,1.62,12.274,1.457q9.281-.406,18.569-.683,17.994-.544,35.994-.642,36.5-.215,72.977,1.466a2.233,2.233,0,0,0-.24.775l-69.042-.045c-22.949-.015-45.925-.414-68.856.464l-.025.2a59.814,59.814,0,0,0,12.929,1.732c-.814,3.231-.365,7.394-.451,10.677-.11,4.2-.1,8.4-.1,12.6q.009,14.649.017,29.292.006,14.449.013,28.9c.005,8.4-.141,16.765.512,25.136a.686.686,0,1,0,1.367,0c.642-8.216.506-16.415.51-24.66q.009-14.687.015-29.375.009-14.409.017-28.822c0-4.361.018-8.714-.1-13.072-.088-3.294.365-7.405-.44-10.643,6.194.155,12.45-.2,18.47-.2l35.536.022q29.069.023,58.134.041a.52.52,0,0,0-.088.206c-.817,8.147-.4,16.55-.455,24.745-.061,9.412-.053,18.821-.059,28.234q-.018,26.274-.033,52.544h-87.5c-7.7,0-15.585-.541-23.25.206a.781.781,0,0,0,0,1.54c6.9.674,13.991.2,20.925.2h94.437v.652a.868.868,0,1,0,1.73,0v-.652H494.97a.431.431,0,0,0,.44,0h36.213c5.547,0,11.153.2,16.73.114a1.11,1.11,0,0,0,1.014.646,1.129,1.129,0,0,0,.981-.709c1.512-.045,3.025-.1,4.529-.2a.833.833,0,0,0,0-1.643h-.033a1.059,1.059,0,0,0,.369-.809c1.227-36.1,1.258-72.585-1.464-108.607a12.1,12.1,0,0,0,2.73.613,23.509,23.509,0,0,0,4.036.127,33.57,33.57,0,0,0,3.981-.4,17.455,17.455,0,0,0,1.925-.362,7.269,7.269,0,0,0,.939-.316,2.333,2.333,0,0,0,1.919-1.073A1.192,1.192,0,0,0,571.181,233.8Zm-208.5-.2q-8.707.274-17.411.654-4.352.19-8.7.41c-2.272.111-5.459.813-7.688-.283,2.351-7.939,6.78-14.731,10.928-21.573l13.436-22.155q6.716-11.079,13.436-22.157c1.868-3.081,3.648-6.252,5.607-9.259a52.482,52.482,0,0,1,6.1-7.385c11.263,1.3,22.858.849,34.169.869l35.439.07q17.429.032,34.858.068c10.793.022,21.713.55,32.5-.352-3.522,3.037-6.317,7.607-8.7,11.5q-7.417,12.135-14.808,24.28-7.239,11.867-14.477,23.739c-4.213,6.905-8.564,13.743-10.918,21.778a1.425,1.425,0,0,0-.054.517q-34.428-1.507-68.88-1.354-17.419.088-34.834.635Zm94.452,112.185q-.014-26.274-.033-52.544c-.006-9.242,0-18.479-.054-27.721-.055-8.362.373-16.945-.461-25.258a.517.517,0,0,0-.088-.206h3.825c-.733,17.888-.455,35.817-.46,53.722q-.012,26-.025,52Zm76.823,0H500.238c.91-7,.242-14.568.217-21.6q-.049-12.756-.1-25.515c-.031-8.5-.006-17.01-.137-25.511q-.088-5.784-.176-11.568a68.816,68.816,0,0,0-.455-10.5h-.176a66.01,66.01,0,0,0-.447,10.038q-.088,6.016-.185,12.03c-.129,8.5-.1,17.008-.136,25.511s-.062,17.012-.093,25.515c-.026,7.029-.693,14.609.218,21.6h-2.847q.315-3.909.254-7.84c.112-3.783.211-7.564.264-11.347q.172-12.073.137-24.151c-.013-8.072-.07-16.143-.313-24.214q-.176-5.716-.4-11.426c-.131-3.294-.655-6.757-.616-10.044.133,0,.264,0,.4.009a.729.729,0,0,0,0-1.44c-3.619-.144-7.22-.2-10.843-.067q-2.655.1-5.314.258c-.849.052-1.7.092-2.553.161a16.269,16.269,0,0,1-2.974.425l.032.26a16.579,16.579,0,0,1,3.155.159c.851,0,1.7-.011,2.553-.009q2.659,0,5.314.063c3.335.073,6.669.1,10,.178.283,3.251-.021,6.77.015,10.049q.066,5.713.069,11.426c.011,8.07.07,16.143.067,24.214q-.005,12.076-.188,24.151c-.057,3.783-.1,7.564-.172,11.347-.049,2.509-.352,5.26-.195,7.84H475.657c.537-6.731.249-13.607.277-20.362.031-7.924-.031-15.846-.067-23.771-.067-14.746.719-29.9-.781-44.566h-.272c-1.5,14.663-.714,29.82-.781,44.566-.036,7.924-.1,15.846-.064,23.771.025,6.748-.264,13.63.274,20.362H471.8c.485-7.313.128-14.8.131-22.13q.009-12.768.015-25.535c.011-15.54.461-31.22-.666-46.721a9.789,9.789,0,0,0,1.98.107l3.17.124c2.377.1,4.755.157,7.137.155l6.873-.006c1.145,0,2.294.039,3.434,0,1.241-.045,2.456-.434,3.7-.543a.262.262,0,0,0,0-.515c-1.243-.127-2.465-.539-3.7-.6-1.057-.048-2.113-.028-3.17-.043l-7.137-.1c-2.294-.03-4.579-.007-6.873.054l-3.434.1a8.657,8.657,0,0,0-2.056.1c-.005-.068-.01-.137-.015-.206h-.18c-.008.1-.011.2-.019.292a1.725,1.725,0,0,0-.49.264v.445a1.775,1.775,0,0,0,.426.236c-1.145,15.547-.688,31.273-.678,46.859q.009,12.517.017,25.035c0,7.5-.367,15.145.131,22.626h-8.827q.04-26,.072-52c.025-17.9.333-35.83-.36-53.722h6.931a.87.87,0,0,0,.255-.058,1.754,1.754,0,0,0,.693.181c2.429.073,4.683-5.131,5.848-6.892q7.713-11.649,15.064-23.593T504.4,185.532c1.705-2.991,3.438-5.954,5.163-8.916,7.343,10.5,14.961,20.807,21.464,32,2.963,5.092,5.678,10.367,8.7,15.413,1.321,2.206,2.705,4.367,4.181,6.45A29.734,29.734,0,0,0,548.322,236c-.75,18.331-.5,36.731-.518,55.077q-.017,27.311.415,54.619C543.462,345.636,538.688,345.784,533.952,345.784Zm16.453-.05c-.27-18.22-.4-36.442-.6-54.662-.2-18.154-.042-36.337-.676-54.482.111.07.215.155.328.216a.463.463,0,0,0,.6-.1.625.625,0,0,0,.087-.675c-1.168-2.371-3.33-4.281-4.851-6.4-1.784-2.5-3.414-5.129-4.977-7.8-3.086-5.293-5.9-10.778-9.034-16.04a290.585,290.585,0,0,0-21.123-30.21q1.456-2.5,2.885-5.029c6.477,10.6,13.419,20.84,20.054,31.325q10.15,16.042,19.5,32.7a.768.768,0,0,0-.564.852c1.514,36.5,2.18,73.18,1.264,109.705a1.039,1.039,0,0,0,.259.751C552.51,345.818,551.458,345.764,550.405,345.735Zm13.878-110.916a30.434,30.434,0,0,1-3.905.543c-1.3.1-2.595.05-3.9.054-.624,0-1.258-.032-1.889-.03-12.369-22.571-25.422-45.611-41.25-65.361,1.782-3.146,3.537-6.311,5.195-9.558a1.153,1.153,0,0,0,.065-.214c10.228,14.222,19.22,29.363,28.185,44.609,4.468,7.594,8.779,15.3,13.2,22.934.769,1.326,2.641,4.89,4.7,6.929-.135.033-.269.066-.4.094Zm-1.474-5.452q-1.482-2.456-2.942-4.929-2.924-4.947-5.8-9.924c-3.728-6.482-7.232-13.119-10.985-19.583-7.437-12.8-15.157-25.4-24.309-36.736a.562.562,0,0,0-.7-.148.707.707,0,0,0-.352.693.946.946,0,0,0-1,.539c-7.457,13.5-14.562,27.142-22.519,40.291q-5.877,9.714-11.994,19.237-3.059,4.763-6.176,9.475c-2.159,3.264-4.742,6.414-6.757,9.733a1.088,1.088,0,0,0,.082-.945.894.894,0,0,0-.667-.58,1.607,1.607,0,0,0-.116-1.687,1.414,1.414,0,0,0,.147-.29c2.34-8,6.8-14.823,10.97-21.7q6.72-11.075,13.436-22.155T506.569,168.5c1.867-3.081,3.648-6.252,5.607-9.259a49.821,49.821,0,0,1,5.7-6.957c.136-.015.272-.022.409-.037a.861.861,0,0,0,.754-.727,53.613,53.613,0,0,1,6.138,7.3c2.066,3.133,3.924,6.456,5.879,9.678l13.436,22.157,13.435,22.155c3.92,6.465,8.069,12.894,10.5,20.276l-.01.013C566.683,236.731,563.291,230.167,562.809,229.366Z" transform="translate(-326.491 -149.5)" fill="#185d4e"/>
              <path id="Path_345" data-name="Path 345" d="M458.8,198.52c-2.7-.951-5.921-.858-8.735-1.077q-4.655-.36-9.324-.449a114.035,114.035,0,0,0-18.226,1.248,1.015,1.015,0,0,0-.547-.6.854.854,0,0,0-.763.047l.031.26c1.04-.1.518,5.061.5,5.665-.061,2.066-.029,4.137-.021,6.207q.023,5.971.044,11.941.046,12.18.088,24.363a.959.959,0,0,0,.7.924.854.854,0,0,0,.964-.551,152.29,152.29,0,0,0,16.139.616c5.7.1,11.406.114,17.1-.3a.313.313,0,0,0,0-.616c-5.685-.511-11.393-.6-17.1-.613a153.227,153.227,0,0,0-16.078.312q-.183-14.458-.364-28.914c-.061-4.776-.028-9.564-.259-14.332a19.207,19.207,0,0,0-.232-3.862c5.877-.26,11.783-.26,17.662-.161q4.491.074,8.967.4c3.014.221,6.29,1.045,9.293.794a.631.631,0,0,0,.544-.577.684.684,0,0,0-.386-.722Z" transform="translate(-240.876 -95.1)" fill="#185d4e"/>
              <path id="Path_346" data-name="Path 346" d="M441.737,209.624c0-3.573.326-7.875-.822-11.264h-.176c-1.152,3.4-.824,7.673-.824,11.264V221.8c0,8.111-.221,16.254.318,24.344a.595.595,0,1,0,1.186,0c.541-8.09.318-16.232.318-24.344Z" transform="translate(-223.996 -93.517)" fill="#185d4e"/>
              <path id="Path_347" data-name="Path 347" d="M443.271,187.025l-.008.022-.361-.041v.1l.362-.038.037.079.083.039.114-.113-.083-.144Z" transform="translate(-221.258 -106.61)" fill="#372b7b"/>
              <path id="Path_348" data-name="Path 348" d="M433.712,193.008l.5-.028a1.128,1.128,0,0,0,.352.24,1.018,1.018,0,0,0,1.049-.322l.308-.017a4.437,4.437,0,0,0,1.976-.332.489.489,0,0,0,.246-.451.933.933,0,0,0,.86-.977c-.128-1.886-.176-3.771-.264-5.657q-.069-1.384-.067-2.773a4.813,4.813,0,0,0-.232-2.47l-.072-.011a1.442,1.442,0,0,0-.088.129.776.776,0,0,0-.472-.637,16.535,16.535,0,0,0-4.5-.343l-4.667-.178c-3.107-.114-6.225-.041-9.333-.043a.585.585,0,0,0-.526.39.723.723,0,0,0,.1.7.519.519,0,0,0-.485.432,30.8,30.8,0,0,0-.537,5.673,21.768,21.768,0,0,0,.735,5.7.816.816,0,0,0,1.013.645.946.946,0,0,0,.572-1.141,36,36,0,0,1-.616-10.7.526.526,0,0,0-.1-.358c3.06.232,6.123.532,9.188.648l4.667.176c.217.009.44.026.662.041-.169,1.191-.362,2.391-.455,3.587-.1,1.268-.107,2.553-.131,3.824a15.514,15.514,0,0,0,.008,2.661c-1.428.061-2.848.135-4.272.253q-4.424.367-8.842.729c-.521.043-.535.934,0,.925l9.011-.142C430.767,193.167,432.237,193.093,433.712,193.008Zm1.156-1.645h-.088l.008-.019h.188A.587.587,0,0,0,434.869,191.363Zm2.944-10.073c.025-.006.033-.032.055-.041-.1.455-.141.951-.208,1.394-.136.9-.249,1.809-.344,2.714a33.084,33.084,0,0,0-.04,5.764,1.461,1.461,0,0,0,.038.183,8.471,8.471,0,0,0-1.731.03l-.221.009a.792.792,0,0,0-.144-.035l-.088-.208a7.392,7.392,0,0,1-.062-1.274c-.034-.918-.059-1.841-.072-2.762-.031-1.886-.121-3.771-.19-5.657a9.637,9.637,0,0,0,3.007-.117Z" transform="translate(-243.891 -115.563)" fill="#185d4e"/>
              <g id="Group_181" data-name="Group 181" transform="translate(92.03 110.839)">
                <path id="Path_349" data-name="Path 349" d="M375.264,201.67l-.32,20.209,18.387-20.724C391.494,201.138,375.264,201.67,375.264,201.67Z" transform="translate(-374.712 -201.154)" fill="#185d4e"/>
                <path id="Path_350" data-name="Path 350" d="M394.344,205.795c-6.7,7.978-13.125,16.374-19.5,23.986l-.021,1.331,1.422-.116L394.4,210.54C394.386,208.911,394.369,207.305,394.344,205.795Z" transform="translate(-374.822 -195.837)" fill="#185d4e"/>
                <path id="Path_351" data-name="Path 351" d="M393.735,212.444c0-1.472,0-2.963-.011-4.438l-18.152,20.456,3.969-.318A105.569,105.569,0,0,1,393.735,212.444Z" transform="translate(-374.147 -193.304)" fill="#b7b7ff"/>
                <path id="Path_352" data-name="Path 352" d="M391.848,210.074a105.573,105.573,0,0,0-14.194,15.7l14.079-1.13S391.843,217.675,391.848,210.074Z" transform="translate(-372.263 -190.935)" fill="#185d4e"/>
                <path id="Path_353" data-name="Path 353" d="M393.563,201.155h-.131l-18.388,20.724-.211,13.218c6.376-7.607,12.8-16.007,19.5-23.986C394.238,205.535,394.018,201.171,393.563,201.155Z" transform="translate(-374.812 -201.155)" fill="#b7b7ff"/>
              </g>
              <path id="Path_354" data-name="Path 354" d="M373.126,243.906a.448.448,0,0,0,.26.408.368.368,0,0,0,.433-.12,2.766,2.766,0,0,0,1.11.4c.64.075,1.306.035,1.949.052l3.342.085c2.508.067,5.011.032,7.52.011l7.24-.061a41.88,41.88,0,0,0,7.1-.223.593.593,0,0,0,0-1.092c-.136-.024-.274-.028-.41-.05.649-7.377.218-14.945.183-22.359-.015-3.731.026-7.472-.057-11.2a69.6,69.6,0,0,0-.588-10.051.43.43,0,0,0,.108-.44.358.358,0,0,0-.331-.263c-4.655-.373-9.327-.635-13.991-.571l-7,.092a30.944,30.944,0,0,0-6.578.4.49.49,0,0,0-.308.346.566.566,0,0,0,.088.48c-.622,7.252-.369,14.632-.413,21.917C372.738,229.047,372.292,236.567,373.126,243.906ZM386.99,200.39c4.579.063,9.177-.194,13.75-.554a71.731,71.731,0,0,0-.573,9.916c-.088,3.729-.04,7.472-.057,11.2-.033,7.36-.455,14.877.176,22.2-1.673-.105-3.373,0-5.029-.017l-7.519-.062c-2.414-.019-4.828-.058-7.24,0l-3.622.1c-.556.013-1.116.017-1.673.043a2.174,2.174,0,0,0-1.233.332c.78-7.225.362-14.622.316-21.893-.044-7.206.2-14.5-.4-21.677a35.318,35.318,0,0,0,6.1.318Z" transform="translate(-284.78 -93.453)" fill="#185d4e"/>
              <path id="Path_355" data-name="Path 355" d="M388.565,202.222a17.125,17.125,0,0,0,1.9.011c.777-.075,1.561-.268,2.331-.4a.321.321,0,0,0,0-.6c-.77-.131-1.555-.324-2.331-.4a16.535,16.535,0,0,0-1.9.007q-2.253.049-4.506.09a57.4,57.4,0,0,0-8.693.5v.2a56.843,56.843,0,0,0,8.693.5Q386.314,202.181,388.565,202.222Z" transform="translate(-282.302 -90.699)" fill="#185d4e"/>
              <path id="Path_356" data-name="Path 356" d="M376.165,236.429c.005-.063.005-.124.012-.187a63.42,63.42,0,0,0,9.468.432,61.319,61.319,0,0,0,9.792-.816c.516-.1.379-1-.122-1.008-.287,0-.577.011-.865.015a72.2,72.2,0,0,0,.057-7.568q-.029-4.355-.057-8.712c-.038-5.828-.033-11.617-.445-17.428h-.272c-.413,5.81-.408,11.6-.446,17.428q-.028,4.359-.057,8.712a72.108,72.108,0,0,0,.059,7.59c-2.61.086-5.226.32-7.837.349-3.082.037-6.149.148-9.226.219.465-5.65.2-11.42.187-17.087q-.009-4.515-.015-9.031.029-2.087-.137-4.168a9.167,9.167,0,0,0-.647-3.5h-.08a9.087,9.087,0,0,0-.649,3.5q-.165,2.079-.138,4.168-.009,4.515-.013,9.031c-.011,5.991-.339,12.107.246,18.061a.594.594,0,1,0,1.185,0Z" transform="translate(-282.964 -90.315)" fill="#185d4e"/>
              <path id="Path_357" data-name="Path 357" d="M350.618,243.906a.448.448,0,0,0,.26.408.368.368,0,0,0,.433-.12,2.768,2.768,0,0,0,1.11.4c.64.075,1.307.035,1.949.052l3.342.085c2.508.067,5.013.032,7.52.011l7.242-.061a41.883,41.883,0,0,0,7.1-.223.593.593,0,0,0,0-1.092c-.135-.024-.274-.028-.41-.05.649-7.377.215-14.945.183-22.359-.017-3.731.025-7.472-.057-11.2a69.609,69.609,0,0,0-.59-10.051.43.43,0,0,0,.108-.44.357.357,0,0,0-.331-.263c-4.654-.373-9.327-.635-13.991-.571l-7,.092a30.951,30.951,0,0,0-6.578.4.49.49,0,0,0-.306.347.566.566,0,0,0,.089.479c-.624,7.252-.369,14.63-.415,21.917C350.229,229.047,349.784,236.567,350.618,243.906Zm13.864-43.516c4.579.063,9.177-.194,13.75-.554a71.687,71.687,0,0,0-.571,9.916c-.088,3.729-.04,7.472-.057,11.2-.033,7.36-.457,14.877.176,22.2-1.673-.105-3.374,0-5.026-.017l-7.52-.062c-2.414-.019-4.826-.058-7.24,0l-3.622.1c-.556.013-1.114.017-1.673.043a2.178,2.178,0,0,0-1.233.332c.783-7.225.362-14.622.316-21.893-.044-7.206.2-14.5-.4-21.677a35.119,35.119,0,0,0,6.1.318Z" transform="translate(-305.125 -93.453)" fill="#185d4e"/>
              <path id="Path_358" data-name="Path 358" d="M365.968,202.2a16.112,16.112,0,0,0,2.037,0c.762-.079,1.527-.262,2.283-.391a.321.321,0,0,0,0-.6,21.616,21.616,0,0,0-4.151-.391q-2.3.049-4.588.092a57.379,57.379,0,0,0-8.691.5v.2a56.821,56.821,0,0,0,8.692.5Q363.757,202.162,365.968,202.2Z" transform="translate(-302.645 -90.683)" fill="#185d4e"/>
              <path id="Path_359" data-name="Path 359" d="M353.657,236.429c.006-.063.006-.124.013-.187a63.42,63.42,0,0,0,9.468.432,61.317,61.317,0,0,0,9.79-.816c.516-.1.38-1-.122-1.008-.288,0-.575.011-.865.015A72.163,72.163,0,0,0,372,227.3q-.028-4.355-.057-8.712c-.038-5.828-.031-11.617-.44-17.428h-.274c-.413,5.81-.406,11.6-.44,17.428q-.029,4.359-.057,8.712a71.568,71.568,0,0,0,.059,7.59c-2.612.083-5.226.32-7.837.349-3.082.037-6.148.148-9.224.219.462-5.65.195-11.42.185-17.087q-.005-4.515-.015-9.031.03-2.087-.137-4.168a9.1,9.1,0,0,0-.649-3.5h-.078a9.051,9.051,0,0,0-.647,3.5q-.167,2.078-.137,4.168-.009,4.515-.015,9.031c-.01,5.991-.339,12.107.247,18.061a.588.588,0,0,0,1.176,0Z" transform="translate(-303.31 -90.315)" fill="#185d4e"/>
              <path id="Path_360" data-name="Path 360" d="M452.348,219.831h-.025q-.146-9.383-1.212-18.7c.417.006.837,0,1.256,0s.4-.667,0-.719a137.317,137.317,0,0,0-28.381-.611c-.752.063-.77,1.354,0,1.335,3.406-.07,6.814-.052,10.22-.048q-.843,2.114-1.491,4.318-.97,2.772-2.187,5.42a76.654,76.654,0,0,1-5.309,9.847.629.629,0,0,0,.01.757l-.246.039c-.088-6.635-.339-13.263-.944-19.853a.275.275,0,1,0-.547,0c-.135,12.477.185,24.954-.124,37.436a.874.874,0,0,0,.486.79.711.711,0,0,0,.835-.194c1.53.221,3.062.406,4.592.569.051.234.1.47.152.706.259,1.219,1.931.7,1.673-.519h0a71.492,71.492,0,0,0,7.308.281c1.769-.028,3.535-.131,5.3-.236a1.027,1.027,0,0,0,.687,1.144.9.9,0,0,0,1.074-.666c.049-.19.1-.382.146-.575,1.633-.12,3.263-.3,4.893-.48a.733.733,0,0,0,.737.479.773.773,0,0,0,.652-.616c.16-.019.32-.028.478-.048.514-.064.535-.968,0-.925-.135.011-.27.013-.4.022.29-5.8.432-11.665.357-17.523.1-.061.21-.127.3-.187a.713.713,0,0,0,.258-.742.616.616,0,0,0-.553-.5Zm-2.317.1a4.46,4.46,0,0,1-1.409-.461,2.9,2.9,0,0,1,.99-.537c.136.17.264.347.406.5a.452.452,0,0,0,.626.053.6.6,0,0,0,.167-.682h.028a.332.332,0,0,0,.37-.251c0,.454.026.91.028,1.365l-.038.007h-.038a5.5,5.5,0,0,1-1.131,0Zm1.169-1.652a.3.3,0,0,0-.195-.163,3.305,3.305,0,0,0-.6-.079c-.678-1.29-1.479-2.522-2.169-3.8q-1.2-2.227-2.236-4.555c-1.251-2.8-2.444-5.665-3.5-8.574,2.685,0,5.371-.009,8.05.026q.532,8.607.64,17.147Zm-25.287,3.942h0l-.055-.052Zm-.99,16.3c.08-5.169.114-10.352.067-15.531a.95.95,0,0,0,.465.438.7.7,0,0,0,.773-.236q.674,4.245,1.345,8.489c.379,2.393.891,4.753,1.4,7.113-1.354-.087-2.708-.167-4.054-.276Zm5.868.4c-.537-2.58-1.057-5.16-1.74-7.7L426.63,222.2l.21-.03.208-.307a.529.529,0,0,0-.318-.631c-.088-.017-.181-.028-.272-.041a52.831,52.831,0,0,0,5.371-9.924q1.02-2.55,1.837-5.193a20.07,20.07,0,0,0,1.13-4.987c1.127,0,2.256.009,3.383,0,1.081-.011,2.162.015,3.244.011a50.627,50.627,0,0,0,3.258,9.257q1.128,2.366,2.428,4.624c.6,1.049,1.217,2.167,1.915,3.176a3.787,3.787,0,0,0-1.645,1.069.627.627,0,0,0-.138.474.59.59,0,0,0,.239.419,5.731,5.731,0,0,0,2.1,1.115c-2.035,5.89-3.745,11.909-5.5,17.911q-6.646.139-13.291-.229Zm15.157.194c1.512-5.888,3.054-11.757,4.278-17.728a5.351,5.351,0,0,0,.969.116h.026c-.005,5.777-.208,11.557-.689,17.367-1.526.093-3.053.189-4.586.241Z" transform="translate(-238.914 -92.392)" fill="#185d4e"/>
              <path id="Path_361" data-name="Path 361" d="M408.973,224.932c.025.007.034.028.061.032l1.769.223a16.761,16.761,0,0,0,1.771.064c1.03.019,2.062.054,3.092.058a.664.664,0,0,0,.658.422.7.7,0,0,0,.591-.534,24.786,24.786,0,0,0,.1-5.184q-.011-2.8-.021-5.6a58.7,58.7,0,0,0-.652-10.609h-.176c-.006.037-.01.075-.015.111a.438.438,0,0,0-.38-.2c-1.212.045-2.421-.024-3.633.032a27.936,27.936,0,0,1-3.622-.061.345.345,0,0,0-.343.332c-.031-.26-.044-.521-.078-.781s-.339-.159-.352.054c-.6,7-.282,14.149-.088,21.166a.824.824,0,0,0,.513.746.692.692,0,0,0,.8-.271Zm-.552-20.443a29.745,29.745,0,0,0,3.718.657,14.513,14.513,0,0,0,3.777-.227c.049-.006.063-.054.1-.073a66.058,66.058,0,0,0-.5,9.564L415.5,219.8c0,1.191-.124,2.526-.076,3.787-.95.011-1.9.039-2.848.056-.564.011-1.137-.007-1.7.054-.59.064-1.181.15-1.771.225a194.681,194.681,0,0,0-.9-19.668.311.311,0,0,0,.22.232Z" transform="translate(-253.353 -88.104)" fill="#185d4e"/>
              <path id="Path_362" data-name="Path 362" d="M408.242,236.746v-.066q.44.02.88.032a15.174,15.174,0,0,0,1.527-.09q.734-.052,1.47-.107c.244-.019.491-.03.735-.056a2.594,2.594,0,0,0,.842-.3.652.652,0,0,0,.258-.611.606.606,0,0,0-.389-.515,2.237,2.237,0,0,0-.891-.079c-.225.035-.447.07-.672.107l-1.51.238c-.482.077-.978.124-1.451.247-.249.066-.5.137-.747.206.149-2.742.352-5.5.357-8.237q.014-4.619.034-9.229a.321.321,0,1,0-.637,0q-.274,4.619-.55,9.229c-.183,3.06-.122,6.163-.172,9.229a.461.461,0,1,0,.916,0Z" transform="translate(-253.409 -71.091)" fill="#185d4e"/>
              <path id="Path_363" data-name="Path 363" d="M415.13,218.424a.46.46,0,0,0-.451-.36q-3.127.1-6.258.206a.414.414,0,0,0,0,.822l6.258.2c.061,0,.088-.048.137-.065a68.724,68.724,0,0,1-1.392,16.72.577.577,0,0,0,.352.695.5.5,0,0,0,.616-.4,45.906,45.906,0,0,0,1.3-8.634,58.7,58.7,0,0,0-.341-8.924A.3.3,0,0,0,415.13,218.424Z" transform="translate(-252.738 -70.94)" fill="#185d4e"/>
              <path id="Path_364" data-name="Path 364" d="M423.678,165.162l7.065-10.651,49.8,74.084s-15.49,3.32-14.65,2.183S423.678,165.162,423.678,165.162Z" transform="translate(-238.633 -143.759)" fill="#b7b7ff"/>
              <path id="Path_365" data-name="Path 365" d="M405.577,202.65c.655-.247,17.059.245,17.059.245l-.219,86.767,1.9-.378s2.423-90.323,1.03-90.451-21.078.365-21.078.365Z" transform="translate(-256.18 -93)" fill="#185d4e"/>
            </g>
          </g>
        </g>
      </g>
    </g>
  </g>
</svg>
