<svg xmlns="http://www.w3.org/2000/svg" xmlns:xlink="http://www.w3.org/1999/xlink" width="395.488" height="372.037" viewBox="0 0 395.488 372.037">
  <defs>
    <clipPath id="clip-path">
      <path id="Ellipse_18" data-name="Ellipse 18" d="M115.969-1.364c65.271.385,118.5,55.441,118.881,122.972S182.634,243.571,117.362,243.186-1.134,187.745-1.519,120.214,50.7-1.749,115.969-1.364Z" transform="translate(0 233.747) rotate(-80.592)" fill="none"/>
    </clipPath>
  </defs>
  <g id="Group_619" data-name="Group 619" transform="translate(20.488 -448.963)">
    <path id="onboard2_background" d="M45.85,66.385C56.825,55.411,132.727-25.064,197.657,7.858S293.679,80.1,329.345,154.176c11.48,29.414,19.2,116.14-86.877,184.726S57.739,303.237,45.85,288.6-51.09,187.093,45.85,66.385Z" transform="translate(375 486.979) rotate(96.024)" fill="#034c3e" opacity="0.1"/>
    <g id="Component_19_1" data-name="Component 19 – 1" transform="translate(9.5 451.975)">
      <g id="Component_18_1" data-name="Component 18 – 1" transform="translate(19.526 58.42)">
        <g id="Group_783" data-name="Group 783" transform="translate(-9.234 3.491)">
          <path id="Ellipse_17" data-name="Ellipse 17" d="M136.078-1.364c76.443.436,138.778,62.758,139.229,139.2a136.491,136.491,0,0,1-137.6,137.624C61.267,275.026-1.068,212.7-1.518,136.26A136.491,136.491,0,0,1,136.078-1.364Z" transform="translate(0 233.747) rotate(-80.592)" fill="#185d4e"/>
        </g>
        <g id="Group_171" data-name="Group 171" transform="translate(180.945 15.679)">
          <path id="Path_262" data-name="Path 262" d="M277.689,135.008l5.283.1c.735.015,1.613-.046,1.986-.679a1.443,1.443,0,0,0-.671-1.852,4.2,4.2,0,0,0-2.129-.381l-8.326-.01a20.879,20.879,0,0,0-5.319.451,2.288,2.288,0,0,0-1.17.6.917.917,0,0,0-.063,1.208,1.344,1.344,0,0,0,.7.3,31.967,31.967,0,0,0,6.884.65c-.018.392-.061.8-.1,1.22h3.1a5.545,5.545,0,0,1-.176-1.608Z" transform="translate(-266.648 -131.745)" fill="#e1e1ff"/>
          <path id="Path_263" data-name="Path 263" d="M275.724,136.132a.525.525,0,0,0-.191-.384q.933-.021,1.863-.059c-.042.157-.086.313-.123.47a3.237,3.237,0,0,0-.075.545h.942a3.364,3.364,0,0,0-.076-.545c-.04-.163-.084-.329-.129-.493a53.7,53.7,0,0,0,6.228-.595.559.559,0,0,0,.192-.027c.109-.019.218-.028.323-.047a.483.483,0,0,0,.4-.444,1.423,1.423,0,0,0,.421-1.886c-.581-.915-1.836-.846-2.777-.827q-4.945.1-9.887.367c-1.533.082-3.109.088-4.629.29-.914.121-1.661.726-1.466,1.729.222,1.15,1.358,1.5,2.388,1.56,1.579.091,3.179.025,4.76,0,.332,0,.665-.015,1-.021a.5.5,0,0,0-.174.37c0,.191,0,.381-.007.572h1.026Zm-4.073-1.443c-.744-.006-1.492,0-2.237-.042a3.149,3.149,0,0,1-.976-.117c-.392-.15-.9-.593-.215-.852a7.436,7.436,0,0,1,2.015-.12q1.041-.054,2.08-.1,2.254-.1,4.509-.172,2.081-.066,4.162-.1c.694-.011,1.388-.026,2.083-.028.559,0,1.9.031.814.759l-.011.011c-2.64.221-5.273.52-7.92.665q-2.152.115-4.3.1Z" transform="translate(-266.71 -131.83)" fill="#075146"/>
        </g>
        <g id="Group_174" data-name="Group 174" transform="translate(2.766 1.491)" clip-path="url(#clip-path)">
          <g id="Group_173" data-name="Group 173" transform="translate(28.521 34.818)">
            <path id="Path_264" data-name="Path 264" d="M273.606,137.205c0,.2,0,.412.015.612A.348.348,0,0,0,273.606,137.205Z" transform="translate(-119.004 -134.991)" fill="#77f"/>
            <path id="Path_265" data-name="Path 265" d="M321.286,152.31a11.731,11.731,0,0,0-.336-3.757,4.491,4.491,0,0,0-2.378-2.866,101.216,101.216,0,0,1-11.273,1.541c.281-.829-.463-1.5-.581-2.367a11.708,11.708,0,0,0-2.449-.236l-.036-.49c-.1-1.411-.8-2.478-.884-3.89a2.371,2.371,0,0,0-.569-1.695,2.254,2.254,0,0,0-1.127-.452,10.15,10.15,0,0,0-3.84.042,11.87,11.87,0,0,0-.346-2.138h-5.028a19.331,19.331,0,0,0-.1,2.206c.228.113.273.512.015.612-.019-.2-.012-.409-.015-.612-.03-.016-.053-.044-.088-.046a35.5,35.5,0,0,0-5.579,1.053,1.981,1.981,0,0,0-1.212.6,1.9,1.9,0,0,0-.214,1.321l.233,2.823a26.316,26.316,0,0,0-4.62.011.532.532,0,0,0-.361.112.457.457,0,0,0-.088.341,3.85,3.85,0,0,0,.707,2.086l.017.015.492.049c.013.218-.347.126-.492-.049-5.65-.586-12-1.024-16.868,1.72a22,22,0,0,0-5.062,4.219,13.792,13.792,0,0,0-3.552,5.459,15.2,15.2,0,0,0-.028,6.07l-1.3,1.486a4.1,4.1,0,0,0-1.571,2.361,2.7,2.7,0,0,0,1.364,2.407,7.694,7.694,0,0,0,2.808.928c4.125.746,8.5.963,12.419-.484a3.92,3.92,0,0,0,2.235-1.615,2.085,2.085,0,0,0-.114-2.131,2.252,2.252,0,0,0-1.962-.986,4.922,4.922,0,0,1,.9-3.641,6.882,6.882,0,0,1,2.918-1.935c2.793-1.04,5.9-.824,8.88-.6-.293.232.3.776.552,1.051a1.816,1.816,0,0,0,1,.473,17.319,17.319,0,0,0,6.289-.331,58.776,58.776,0,0,1,14.148-.512,5.23,5.23,0,0,0,2.848-.267c.854-.443,1.334-1.664.661-2.336,3.685-.421,6.791-.912,10.475-1.332a7.879,7.879,0,0,1,2.6-.009.5.5,0,0,1,.133.048C321.809,155.294,321.248,153.859,321.286,152.31Z" transform="translate(-137.734 -135.992)" fill="#075146"/>
            <path id="Path_266" data-name="Path 266" d="M268.192,141.8l-.492-.049C267.844,141.924,268.2,142.015,268.192,141.8Z" transform="translate(-124.303 -131.219)" fill="#77f"/>
            <path id="Path_267" data-name="Path 267" d="M255.885,166.117a2.482,2.482,0,0,1-.789-3.146,2.664,2.664,0,0,1,3.056-1.335c-.116-3.693-.148-7.669,2.02-10.715a12.841,12.841,0,0,1,4.918-3.869,22.612,22.612,0,0,1,13.852-1.882q.225-.865.454-1.73,13.138-.206,26.254-1.056a8.228,8.228,0,0,1-.256,4.759l-26.49.216-.467,2.73a33.063,33.063,0,0,0-8.527-.3,10.89,10.89,0,0,0-7.313,3.848c-1.6,2.142-1.945,4.9-2.122,7.538a1.918,1.918,0,0,1,1.74-.256,20.14,20.14,0,0,1-.237,4.692Z" transform="translate(-135.834 -130.691)" fill="#e1e1ff"/>
            <g id="Group_172" data-name="Group 172" transform="translate(0 0)">
              <path id="Path_268" data-name="Path 268" d="M251.829,222.846c.119-5.185-1.672-6.108-3.7-6.339-4.421-3.8-5.256-6.222-1.791-8.182s7.764,1.615,7.525,1.153-4.9-4.606-3.106-7.259,14.335,5.185,14.335,5.185-1.435-35.722-1.789-41.251-1.313-11.292-1.313-11.292a94.062,94.062,0,0,0,9.675,1.036,25.687,25.687,0,0,0,5.495-.23l2.628,44.71s4.9-9.564,10.273-8.871,2.387,5.992,2.387,5.992,2.987-5.3,8.362-3-.957,11.174-.957,11.174-5.017-4.148-9.435-.805c-1.911-4.5-10.033-6.108-13.737-1.5a9.769,9.769,0,0,0-1.791,9.335s-4.539-.115-4.9,2.42c-4.3-.577-8.122-.23-10.273,8.18C255.054,220.886,251.829,222.846,251.829,222.846Z" transform="translate(-145.4 -120.332)" fill="#fff"/>
              <path id="Path_269" data-name="Path 269" d="M264.686,181.535a10.837,10.837,0,0,1,3.3-3.216,2.637,2.637,0,0,1,2.379-.47c1.028.465,1.1,1.807,1.326,2.879a3.735,3.735,0,0,0,1.156,2.109,2.343,2.343,0,0,0,2.338.449c.919-.385,1.34-1.384,1.778-2.254a13.048,13.048,0,0,1,3.14-3.994,3.822,3.822,0,0,1,2.7-1.152c1.6.144,2.5,1.935,2.516,3.49.026,2.665-1.53,5.074-3.03,7.311a5.207,5.207,0,0,1-.081-2.436c.035-.821-.313-1.819-1.149-1.962a2.12,2.12,0,0,0-1.653.738c-1.68,1.516-3.222,3.34-5.41,4.021a2.978,2.978,0,0,1-1.727.093,4.265,4.265,0,0,1-1.848-1.569,8.047,8.047,0,0,0-2.626-2.184,4.2,4.2,0,0,0-3.378-.192,11.478,11.478,0,0,1-1.436.417Z" transform="translate(-128.54 -102.881)" fill="#e1e1ff"/>
              <path id="Path_270" data-name="Path 270" d="M258.258,155.943c0,.518.359,29.04,1.432,25.236s1.434-26.1,1.434-26.1Z" transform="translate(-132.777 -120.148)" fill="#e1e1ff"/>
              <path id="Path_271" data-name="Path 271" d="M257.448,156.133s2.122,33.052,2.476,41.693,2.687-5.011,3.045-10.715,1.434,25.236,1.434,25.236-3.047.341-3.585,3.11l-3.226-.518L253.6,155.43Z" transform="translate(-136.953 -119.857)" fill="#e1e1ff"/>
              <path id="Path_272" data-name="Path 272" d="M232.542,231.2s14.574-5.07,22.219-9.449,36.312-24.431,41.091-27.425,9.555-5.762,12.661-2.765.239,6.222-3.106,9.218-25.323,22.124-25.323,22.124,11.705-6.682,18.874-10.6,19.349-11.984,21.977-13.366,2.387-1.038,2.387-1.038.239-3.917-3.343-3.34l-5.734.92s.6-16.131-13.378-11.407c-3.7-6.685-11.468-4.034-13.617-1.038s-2.628,8.759-2.628,8.759-2.987.46-4.18,2.535c-2.387-.23-8,1.962-9.079,4.378s-.954,3.227-.954,3.227-6.332-1.384-8.122.115c-1.076,5.76-8.842,12.674-16.126,15.67S232.422,229.935,232.542,231.2Z" transform="translate(-155.856 -99.537)" fill="#fff"/>
              <path id="Path_273" data-name="Path 273" d="M261.113,228.233s14.54-8.319,28.309-16.249,15.171-9.679,15.289-10.025.239-5.875-3.463-5.991c-12.422,9.794-42.644,32.5-42.644,32.5Z" transform="translate(-132.466 -86.195)" fill="#f4b07d"/>
              <path id="Path_274" data-name="Path 274" d="M284.575,191.712c.239-.346,9.079-3.8,12.185-3.8s3.343,2.418,3.343,2.418-22.7,14.174-25.084,15.9-16.724,9.334-16.6,8.871S284.575,191.712,284.575,191.712Z" transform="translate(-132.636 -92.886)" fill="#f4b07d"/>
              <path id="Path_275" data-name="Path 275" d="M261.075,202.387a10.776,10.776,0,0,1,9.437,1.73c.6-4.724,9.914-6.8,9.914-6.8-.119-3.917,8-4.265,8-4.265.957-9.564,9.2-11.522,11.348-8.871-3.823,3.919-3.823,4.726-3.823,4.726s5.017-5.417,10.392-4.15,8.6,5.647,8.362,7.146-.717,1.5-.717,1.5l-4.658,1.382s2.387-4.84-2.034-6.568-5.854,1.038-12.066,4.724-32.25,20.742-34.639,22.239-13.5,9.333-17.322,10.6-10.988,3.917-10.988,3.917a17.7,17.7,0,0,1,7.162-9.564c5.49-3.342,16.961-8.3,18.634-10.947A35.723,35.723,0,0,0,261.075,202.387Z" transform="translate(-156.08 -96.879)" fill="#fff"/>
              <path id="Path_276" data-name="Path 276" d="M194.589,265.792c32.831-18.6,45.016-39.57,51.462-47.405s31.3-16.593,35.6-20.051,10.749-6.452,12.422-6.683,4.539,1.152,2.867,6.222-10.025,13.6-17.676,17.287-12.184,6.915-13.138,12.676c9.077-3.225,24.847-11.984,31.772-17.054s27.474-16.362,30.818-20.281,12.9-7.144,14.813-3.687-1.434,9.449-10.75,15.439-18.634,16.131-18.634,16.131,15.529-7.375,20.784-11.292,21.3-16.669,28.188-13.6c3.106,1.384-1.432,9.679-5.256,12.214s-30.1,22.817-31.776,24.43-11.23,8.067-11.23,8.067a118.859,118.859,0,0,0,20.784-9.679c9.316-5.762,19.589-14.519,22.7-16.131s10.512-2.535,8.362,3.917-12.9,17.284-18.874,21.432-20.784,14.29-24.605,16.825a25.959,25.959,0,0,0-5.495,4.606s10.988-4.378,16.483-8.759,16.963-10.14,20.785-9.218,3.584,3.227-.954,7.144-13.857,11.753-19.83,14.98-31.054,19.361-47.293,21.9-45.392,6.227-51.364,9.681-11.944,6.682-11.944,6.682Z" transform="translate(-189.914 -95.017)" fill="#f4c990"/>
              <path id="Path_277" data-name="Path 277" d="M292.135,185.9c2.387,5.3-21.5,20.742-26.757,23.969S246.743,224.39,248.893,226s6.69-1.613,6.69-1.613,30.818-23.508,34.641-27.2S300.018,187.278,292.135,185.9Z" transform="translate(-141.389 -94.56)" fill="#f4b07d"/>
              <path id="Path_278" data-name="Path 278" d="M306.07,189.169c1.911,2.3-1.913,6.909-8.842,12.674s-37.508,26.5-41.09,29.27-3.585,8.757,5.495,3.917,38.94-27.656,43-32.5S316.338,193.086,306.07,189.169Z" transform="translate(-136.686 -91.84)" fill="#f4b07d"/>
              <path id="Path_279" data-name="Path 279" d="M309.826,199.367c.239,4.148-16.485,21.434-26.757,26.5s-25.8,16.824-27.712,19.819,5.017,1.843,11.944-2.075,27.475-17.974,31.057-21.894S316.992,204.437,309.826,199.367Z" transform="translate(-135.669 -83.372)" fill="#f4b07d"/>
              <path id="Path_280" data-name="Path 280" d="M352.567,215.861c-.239,2.535-27.234,22.355-44.436,29.038s-51.841,6.454-67.13,8.759-43.718,20.051-43.718,20.051l11.468,7.375s30.818-16.824,46.585-17.515,36.552-1.613,61.4-16.593S354,222.544,355.2,219.55,352.567,215.861,352.567,215.861Z" transform="translate(-187.492 -69.675)" fill="#f4b07d"/>
              <path id="Path_281" data-name="Path 281" d="M242.744,221.94s-16.246,8.3-16.246,7.605a32.157,32.157,0,0,1,11.944-18.436c9.316-6.683,27-14.521,28.907-21.434.478,8.3-6.927,15.211-13.378,18.669S235.575,219.4,242.744,221.94Z" transform="translate(-161.279 -91.423)" fill="#f4b07d"/>
              <path id="Path_282" data-name="Path 282" d="M192.125,255.109c18.874-11.292,36.791-23.276,42.525-32.726s7.405-12.445,15.289-16.362,38.387-20.813,39.618-20.2-.677,8.683-1.394,8.683-26.04,9.679-32.729,17.974a270.5,270.5,0,0,1-21.262,23.508c-8.362,8.3-34.4,28.807-34.4,28.807Z" transform="translate(-192.125 -94.635)" fill="#f4b07d"/>
              <path id="Path_283" data-name="Path 283" d="M363.595,233.712c-.108-.009-.21,0-.317,0v-.018a6.536,6.536,0,0,0-.607-2.047,6.107,6.107,0,0,0-1.936-2.283A22.05,22.05,0,0,0,362.88,227c1.53-1.981,2.969-4.759,2.387-7.3-.692-3.026-4.121-4.058-6.992-3.716a.816.816,0,0,0-.1.021.945.945,0,0,0,0-.335c-.294-1.45-1.9-1.947-3.249-1.962a21.847,21.847,0,0,0-5.259.776c-.095.022-.186.064-.281.085.088-3.747-.694-7.752-3.5-10.412a5.339,5.339,0,0,0,1.465-1.5,11.718,11.718,0,0,0,1.722-3.241,6.41,6.41,0,0,0-.861-5.872,5.607,5.607,0,0,0-5.968-1.685,8.74,8.74,0,0,0-3.48,1.968,6.048,6.048,0,0,0-.3-1.915,4.074,4.074,0,0,0-4.431-2.644,10.572,10.572,0,0,0-5.726,3.174,13.049,13.049,0,0,0-3.1,4.922q-.592-9.445-1.182-18.89c-.23-3.7-.394-7.4-.714-11.089-.306-3.514-.205-7.455-1.313-10.829-.177-.535-1.1-.626-1.225,0-.666,3.337-.148,7.018-.04,10.4.123,3.838.41,7.677.632,11.515q.635,10.969,1.27,21.936v.014c-3.332,2.257-4.757,6.452-4.37,10.338a5.433,5.433,0,0,0-4.67,2.771,5.1,5.1,0,0,0-2.356-.123,1.076,1.076,0,0,0,.032-.293c-.638-4.46-.442-9.022-.52-13.563q-.137-7.449-.512-14.888-.367-7.216-.96-14.416c-.368-4.465-.292-9.778-1.909-14.014-.088-.235-.531-.31-.577,0a32.871,32.871,0,0,0,.081,6.815c.141,2.7.391,5.4.562,8.1q.5,7.877.732,15.773.222,7.666.188,15.342c0,.979-.027,1.962-.043,2.944a31.418,31.418,0,0,0-5.051-3.412c-1.857-.983-4.1-2.275-6.3-2.169a3.125,3.125,0,0,0-2.433,1.151,2.893,2.893,0,0,0-.551,2.559,5.964,5.964,0,0,0,1.56,2.639c.186.2.394.4.606.613a9,9,0,0,0-3.189-.5,5.856,5.856,0,0,0-4.609,2.35,3.67,3.67,0,0,0-.434.9,4.754,4.754,0,0,0-2.956.235c-6.19,2.047-12.015,5.685-17.627,8.861-6.489,3.668-12.91,7.477-19.2,11.463-1.68,1.065-3.4,2.114-4.969,3.335-5.2,4.04-9.019,9.549-13.179,14.513a103.3,103.3,0,0,1-16.752,15.728c-3.237,2.465-6.592,4.772-9.954,7.075-2.88,1.971-6.66,3.727-8.9,6.38a.367.367,0,0,0-.053.448.4.4,0,0,0,.43.176c2.671-.727,5.051-2.644,7.37-4.094,2.829-1.765,5.618-3.577,8.356-5.471a131.049,131.049,0,0,0,13.873-10.877,150.964,150.964,0,0,0,12.414-13.549c2.7-3.142,5.87-6.711,9.1-8.936a296.38,296.38,0,0,1,32.66-19.256,47.446,47.446,0,0,1,7.358-3.348c.247-.077.568-.189.869-.256a2.1,2.1,0,0,0,.265.7c-.2,2.347-1.461,5.153-3.738,6.267a1.051,1.051,0,0,0-.581,1.173c-6.286,3.348-13.071,5.738-19.234,9.316a100.278,100.278,0,0,0-16.959,12.264c-5.411,4.9-9.766,10.554-14.138,16.3a103.444,103.444,0,0,1-16.9,17.578c-6.526,5.347-13.625,10.014-20.617,14.768a1.018,1.018,0,0,0,1.055,1.741c11.375-6.923,22.892-14.185,31.934-23.918,4.782-5.145,8.618-10.993,13.086-16.382a82.7,82.7,0,0,1,14.728-13.779,98.946,98.946,0,0,1,17.7-10.321,119.715,119.715,0,0,0,17.21-9.078c1.525-1.018,3.78-2.246,4.613.141a6.565,6.565,0,0,1-.157,3.657,14.945,14.945,0,0,1-2.583,5.316c-2.486,3.28-6.138,5.544-9.692,7.607-7.544,4.382-16.231,8.642-18.038,17.786a1.389,1.389,0,0,0,1.022,1.658,1.453,1.453,0,0,0,1.758-.918c-.177.507.177-.049.541-.251.421-.233.829-.49,1.254-.721,1.383-.752,2.82-1.42,4.252-2.081,2.522-1.16,5.1-2.218,7.6-3.412,3.984-1.9,7.635-4.606,11.318-6.995q6.725-4.36,13.621-8.434c4.681-2.773,9.346-5.573,13.87-8.579,4.093-2.719,7.847-5.819,11.849-8.647a17.474,17.474,0,0,1,6.358-3.1c3.078-.644,6.464.891,4.54,4.326-1.2,2.144-3.459,3.861-5.264,5.513q-2.975,2.724-6.07,5.316c-9.136,7.69-18.868,14.684-28.251,22.082-1.288,1.016.545,2.749,1.823,1.757,6.711-5.2,14.736-8.59,22.128-12.767,8.127-4.593,15.474-10.342,23.418-15.2a33.969,33.969,0,0,1,6.526-3.525c1.55-.524,4.631-.908,5.534.938.983,2.011-1.1,4.987-2.442,6.4-3,3.176-6.837,5.863-10.257,8.607q-5.5,4.413-11.147,8.649c-8.874,6.681-17.97,13.082-27.085,19.453a1.33,1.33,0,0,0,1.055,2.414c16.577-4.3,29.821-15.39,43.426-24.908a55.531,55.531,0,0,1,4.829-3.241c1.522-.839,3.909-.908,4.089,1.238a6.886,6.886,0,0,1-1.338,3.919,53.05,53.05,0,0,1-7.748,9.93c-5.952,6.128-12.957,11.174-19.968,16.1-6.908,4.862-15.423,8.18-20.847,14.77-.939,1.142.258,3.141,1.757,2.2a21.755,21.755,0,0,1,3.555-1.45c1.88-.745,3.77-1.473,5.62-2.288a54.963,54.963,0,0,0,6.715-3.994q4.827-3,9.654-6c3.047-1.882,6.269-3.862,9.922-4.35a6,6,0,0,1,2.734.022c1.349.525.846,1.728.017,2.632a29.013,29.013,0,0,1-3.8,3.022c-5.495,4.206-11.058,8.335-16.783,12.247-11.17,7.634-23.035,14.561-35.888,19.221a104.185,104.185,0,0,1-19.854,5.123c-7.36,1.12-14.849,1.152-22.2,2.354-16.4,2.687-32.416,9.7-46.671,17.8a1.5,1.5,0,0,0-.518,2.061,1.615,1.615,0,0,0,2.116.575c13.938-7.9,29.467-14.672,45.481-17.372,8.16-1.377,16.5-1.323,24.655-2.76a107.419,107.419,0,0,0,21.189-6.124c13.595-5.435,26.042-13.117,37.827-21.549q4.383-3.133,8.665-6.39c2.679-2.026,5.836-3.966,8.14-6.4,1.672-1.767,2.355-4.714.225-6.42-2.234-1.791-6.089-1.03-8.589-.233-3.933,1.256-7.369,3.6-10.813,5.755l-12.025,7.506s-2.315,1.194-3.537,1.658c5.014-3.743,10.957-6.568,15.974-10.12,7.491-5.3,14.982-10.8,21.078-17.62,2.846-3.183,6-6.879,7.541-10.856C368.45,238.418,367.568,234.042,363.595,233.712Zm-37.039-35.4a12.65,12.65,0,0,1,6.6-6.728c1.5-.567,3.011-.276,3.353,1.38a8.159,8.159,0,0,1-.425,3.856,1.129,1.129,0,0,0,1.881,1.054,12.733,12.733,0,0,1,4.059-3.548c1.573-.7,3.618-.642,4.552.952a4.741,4.741,0,0,1-.106,4.409c-.477.994-1.68,2.144-2.034,3.315a8.716,8.716,0,0,0-9.1-.353,9.268,9.268,0,0,0-10-3.436l-.03-.5a.9.9,0,0,0,.722.078.863.863,0,0,0,.534-.475Zm-37.013,16.079a5.662,5.662,0,0,0,.966.7c-.472.217-.945.457-1.415.723A9.323,9.323,0,0,0,289.542,214.392Zm4.311-.147a.873.873,0,0,0-.22-.163,8.863,8.863,0,0,1-3.075-1.915,2.138,2.138,0,0,1-.131-2.853c1.9-2.218,5.375-.768,7.533.171a1.093,1.093,0,0,0,1.14-.1,1,1,0,0,0,.387-1.039c-.256-1.7-1.622-2.73-2.707-3.961-.5-.566-1.227-1.591-.8-2.358.381-.682,1.378-.6,2.047-.467a19.07,19.07,0,0,1,5.217,2.248,50.616,50.616,0,0,1,5.047,3.165c-.021,1.139-.043,2.275-.042,3.412,0,1.3.017,2.682,1.032,3.5a9.256,9.256,0,0,0-3.56,2.289,7.983,7.983,0,0,0-2.171,4.249,6.835,6.835,0,0,0-2.593-.293,4.581,4.581,0,0,0-2.662.938,7.329,7.329,0,0,0-.843-4.631,4.011,4.011,0,0,0-3.6-2.2Zm46.5-5.407c-4.789-.326-8.986,2.879-12.489,5.607a176.084,176.084,0,0,1-15.7,10.823c-5.161,3.187-10.434,6.2-15.61,9.359-5.221,3.189-10.288,6.767-15.714,9.626-2.969,1.565-6.18,2.744-9.231,4.157-.7.322-1.643.69-2.615,1.12,3.353-6.108,10.726-9.258,16.735-12.88,3.537-2.132,6.95-4.576,9.373-7.9a17.951,17.951,0,0,0,3-6.6c.966-.033,1.884-.341,2.855-.3a4.705,4.705,0,0,1,2.875,1.075,1.19,1.19,0,0,0,1.238.219,1.119,1.119,0,0,0,.715-1,6.035,6.035,0,0,1,2.091-4.732,6.693,6.693,0,0,1,2.413-1.393,8.434,8.434,0,0,1,2.7-.256,4.811,4.811,0,0,0,.979,3.032,5.421,5.421,0,0,0-.8.512,3.907,3.907,0,0,0-1.275,4.922.741.741,0,0,0,1.288-.727,1.842,1.842,0,0,1-.025-1.636,3.3,3.3,0,0,1,1.167-1.415c1.454-.949,3.383-.829,5.052-.752a.922.922,0,0,0,.892-.655c.2-1.307-1.539-1.15-2.332-1.126a14.153,14.153,0,0,0-1.782.171c-.2.031-.387.077-.581.123a3.281,3.281,0,0,1-.152-3.91,3.562,3.562,0,0,1,3.777-1.425,1.094,1.094,0,0,0,1.016-.27,1,1,0,0,0,.28-.98c-.765-3.712.654-8.265,4.43-9.974,3.343-1.508,7.673-.189,9.144,3.128a1.109,1.109,0,0,0,.807.509,1.131,1.131,0,0,0,.914-.3c2.471-2.352,6.639-1.479,8.851.8,2.425,2.5,2.852,6.13,2.691,9.452-.694.256-1.368.554-2.034.864.013-.029.034-.053.048-.085,1.6-3.727-1.036-6.912-4.987-7.179Zm4.355,14.226c-4.524,2.98-8.931,6.123-13.485,9.061-3.224,2.08-6.612,3.917-10.022,5.722,4.262-3.291,8.495-6.618,12.591-10.1q3.234-2.748,6.345-5.63a44.748,44.748,0,0,0,3.34-3.3c.4-.214.8-.434,1.209-.628a25.387,25.387,0,0,1,2.755-1.071,1.1,1.1,0,0,0,1.075.25,1.049,1.049,0,0,0,.734-.8,30.2,30.2,0,0,1,4.15-.837c.632-.073,2.691-.468,2.875.444a.9.9,0,0,0,.11.256,23.466,23.466,0,0,0-4.244,2.03C349.6,219.9,347.141,221.463,344.71,223.064Zm13.428,12.677c-2.028,1.351-4.017,2.764-6,4.18-3.842,2.746-7.639,5.544-11.513,8.252a113.786,113.786,0,0,1-19.845,11.554c6.427-4.545,12.827-9.123,19.111-13.849q6.523-4.906,12.87-10.024c2.15-1.743,4.584-3.463,6.756-5.369a4.234,4.234,0,0,1,.778.674l.133.154.043.053.232.329.224.382.074.144.048.085a5.018,5.018,0,0,1,.26.756l.089.39.021.119.01.118c.01.1,0,.2,0,.3a13.728,13.728,0,0,0-3.292,1.755Z" transform="translate(-190.185 -119.358)" fill="#185d4e"/>
              <path id="Path_284" data-name="Path 284" d="M321.171,156.2a7.056,7.056,0,0,0-3.292-.241l-3.161.07-3.045.067c-.856.018-1.692.106-2.535.2q.163-4.327.038-8.656a13.2,13.2,0,0,0,1.454.027l2.939-.136c1.954-.09,3.939-.085,5.882-.313a1.025,1.025,0,0,0,1.013-.978,1.006,1.006,0,0,0-1.013-.978c-2,.031-4.009.3-6,.465l-2.939.247a12.484,12.484,0,0,0-1.387.209c-.021-.548-.03-1.094-.057-1.64a1.483,1.483,0,0,0-1.486-1.433c-.924.026-1.85.016-2.774.026-.005-.284-.011-.567-.019-.853a10.838,10.838,0,0,0-.129-1.285q-.157-1.115-.313-2.222a.632.632,0,0,0-.611-.449.667.667,0,0,0-.463.235,8.646,8.646,0,0,0-3.784-.933c-.427-.042-.858-.057-1.287-.085-.013-.443-.026-.888-.042-1.331,0-.075-.025-.145-.03-.218H296.6c-.005.073-.03.142-.032.218q-.02.64-.04,1.279c-.543,0-1.088,0-1.628.042-.222.02-.442.053-.664.077-.005-.54-.013-1.08-.019-1.621h-1.666c-.008.61-.013,1.217-.021,1.827-.684.1-1.363.22-2.034.363q-1.081.23-2.148.531a3.516,3.516,0,0,0-1.556.853c-.021-.011-.03-.035-.055-.044a1.219,1.219,0,0,0-1.279.235,2,2,0,0,0-.488,1.34,3,3,0,0,0,.011.7,4.288,4.288,0,0,0,.425,1.369c-1.326.07-2.66.171-3.994.348a.724.724,0,0,0-.538.311.673.673,0,0,0-.081.6c-.156.635-.3,1.27-.414,1.906a.476.476,0,0,0-.326-.2c-6.506-1.083-14.059-.382-19.357,3.753a18.166,18.166,0,0,0-5.482,6.974c-1.081,2.493-1.666,5.63-.546,8.2-.277-.038-.554-.048-.833-.091-1.271-.2-1.922,1.391-1.043,1.975-1.1,1.644.146,3.855,1.911,4.618a12.362,12.362,0,0,0,3.845.7c.619.055,1.233.085,1.85.13a219.666,219.666,0,0,0,1.043,28c.08.816,1.386.845,1.345,0-.447-9.267-.338-18.551.129-27.816h.032c2.5.137,5.63.688,7.836-.792,1.865-1.248,2.918-4.164.9-5.765a1.366,1.366,0,0,0-.691-.271c-.945-1.395.04-3.406,1.292-4.265a6.5,6.5,0,0,1,3.545-.912,16.984,16.984,0,0,1,2.068.1c.321.035.639.075.959.121a4.763,4.763,0,0,0,.632.085,4.2,4.2,0,0,0,.747-.119.891.891,0,0,0,.649-.525c.013.04.034.077.048.115-.034.033-.072.046-.106.08a.892.892,0,0,0,0,1.274c1.385,1.263,4.1.624,5.857.569q3.51-.107,7.016-.217,6.891-.209,13.775-.426a1.468,1.468,0,0,0,1.459-1.407c.04-.6.061-1.19.093-1.784a25.37,25.37,0,0,0,2.531.216q1.579.033,3.161.07c1.013.024,2.034.044,3.043.067,1.089.024,2.425.264,3.41-.24a1.352,1.352,0,0,0,0-2.353Zm-52.661,13.552c-1.643.558-3.7.2-5.4.131-1.96-.073-3.918-.056-5.878-.11a4.034,4.034,0,0,1-2.317-.538c-.425-.328-.8-1.077-.381-1.535a.912.912,0,0,0,.187-.305,41.889,41.889,0,0,0,14.855.02,1.166,1.166,0,0,0,.057.136C270.224,168.437,269.425,169.436,268.511,169.748Zm11.974-10.827a3.932,3.932,0,0,0-.681-.3,5.153,5.153,0,0,0-.8-.091c-.424-.04-.848-.077-1.273-.1a15.438,15.438,0,0,0-2.537.048,7.589,7.589,0,0,0-4.4,1.8,5.516,5.516,0,0,0-1.749,4.457,50.315,50.315,0,0,1-12.335.558.857.857,0,0,0,.171-.583,19.537,19.537,0,0,1-.224-3.644,10.961,10.961,0,0,1,1.015-3.565,16.153,16.153,0,0,1,4.958-5.984c4.939-3.688,11.259-4.038,17.259-4.244a.564.564,0,0,0,.368-.161,29.833,29.833,0,0,0-.374,5.564,39.84,39.84,0,0,0,.368,4.3c.088.664.177,1.343.308,2.01a.812.812,0,0,0-.08-.058Zm6.867-17.885a1.084,1.084,0,0,0,.1-.478c0-.011-.01-.018-.01-.029a3.623,3.623,0,0,0,1.1-.014c.691-.119,1.379-.24,2.076-.324a33.65,33.65,0,0,1,4.273-.223c1.383.016,2.768.029,4.148.147a15.278,15.278,0,0,0,3.853.23c-.03.22-.063.438-.093.657a10.794,10.794,0,0,0-.129,1.285c-.006.289-.013.58-.019.869q-4.141,0-8.283-.055c-2.351-.029-4.686-.066-7.014-.009a.7.7,0,0,0,0-.275,3.032,3.032,0,0,1-.177-.639,3.113,3.113,0,0,1,0-.516,3.018,3.018,0,0,1,.165-.625Zm18.731,17.834q-6.189.209-12.384.421-3.376.113-6.756.229l-3.3.112c-.157-1.013-.469-2.01-.659-3.016a35.512,35.512,0,0,1-.531-4.1,56.73,56.73,0,0,1-.017-7.251c4.055.286,8.112.38,12.179.535,3.846.145,7.688.269,11.536.2q.273,6.432-.067,12.867Z" transform="translate(-138.052 -135.991)" fill="#075146"/>
            </g>
            <path id="Path_285" data-name="Path 285" d="M249.283,193.061a3.317,3.317,0,0,1-2.992-2.621,2.4,2.4,0,0,1,.632-1.913,2.592,2.592,0,0,1,1.9-.821,6.448,6.448,0,0,1,1.928.71,7.281,7.281,0,0,0,3.648.564c-.1-1.243-1.189-2.156-2.057-3.08s-1.592-2.312-.9-3.364a2.377,2.377,0,0,1,2.438-.805,6.952,6.952,0,0,1,2.421,1.2l4.468,3.009c-.922.479-2.053-.227-3.087-.077a2.573,2.573,0,0,0-1.875,2.815,15.245,15.245,0,0,0,1.072,3.518,1.69,1.69,0,0,1,.011,1.351c-.273.476-.89.629-1.415.829s-1.085.633-.977,1.168a1.383,1.383,0,0,0,.6.732,4.953,4.953,0,0,1,1.454,1.49,1.651,1.651,0,0,1-.154,1.924,2.182,2.182,0,0,1-.973.494,6.732,6.732,0,0,1-5.228-.711,6.856,6.856,0,0,0-.85-4.548Z" transform="translate(-143.533 -98.062)" fill="#e1e1ff"/>
          </g>
        </g>
      </g>
    </g>
  </g>
</svg>
